<?xml version="1.0" encoding="UTF-8" standalone="no"?>
<!-- Created with Inkscape (http://www.inkscape.org/) -->

<svg
   xmlns:dc="http://purl.org/dc/elements/1.1/"
   xmlns:cc="http://creativecommons.org/ns#"
   xmlns:rdf="http://www.w3.org/1999/02/22-rdf-syntax-ns#"
   xmlns:svg="http://www.w3.org/2000/svg"
   xmlns="http://www.w3.org/2000/svg"
   xmlns:xlink="http://www.w3.org/1999/xlink"
   xmlns:sodipodi="http://sodipodi.sourceforge.net/DTD/sodipodi-0.dtd"
   xmlns:inkscape="http://www.inkscape.org/namespaces/inkscape"
   id="svg2"
   version="1.1"
   inkscape:version="0.91 r13725"
   width="1000"
   height="1000"
   xml:space="preserve"
   sodipodi:docname="logo.svg"
   inkscape:export-filename="E:\Dev\Flym\svg\bitmap.png"
   inkscape:export-xdpi="46.080002"
   inkscape:export-ydpi="46.080002"><metadata
     id="metadata8"><rdf:RDF><cc:Work
         rdf:about=""><dc:format>image/svg+xml</dc:format><dc:type
           rdf:resource="http://purl.org/dc/dcmitype/StillImage" /><dc:title /></cc:Work></rdf:RDF></metadata><defs
     id="defs6"><linearGradient
       inkscape:collect="always"
       id="linearGradient4440"><stop
         style="stop-color:#000000;stop-opacity:1;"
         offset="0"
         id="stop4442" /><stop
         style="stop-color:#000000;stop-opacity:0;"
         offset="1"
         id="stop4444" /></linearGradient><clipPath
       clipPathUnits="userSpaceOnUse"
       id="clipPath16"><path
         d="M 0,0 800,0 800,800 0,800 0,0 z"
         id="path18" /></clipPath><radialGradient
       fx="0"
       fy="0"
       cx="0"
       cy="0"
       r="1"
       gradientUnits="userSpaceOnUse"
       gradientTransform="matrix(610.56799,0,0,-610.56799,400,400)"
       spreadMethod="pad"
       id="radialGradient24"><stop
         style="stop-opacity:1;stop-color:#a97c50"
         offset="0"
         id="stop26" /><stop
         style="stop-opacity:1;stop-color:#3c2415"
         offset="1"
         id="stop28" /></radialGradient><clipPath
       clipPathUnits="userSpaceOnUse"
       id="clipPath36"><path
         d="M 0,800 800,800 800,0 0,0 0,800 z"
         id="path38" /></clipPath><clipPath
       clipPathUnits="userSpaceOnUse"
       id="clipPath44"><path
         d="m 128.672,751.83 529.701,0 0,-53.714 -529.701,0 0,53.714 z"
         id="path46" /></clipPath><clipPath
       clipPathUnits="userSpaceOnUse"
       id="clipPath48"><path
         d="m 128.563,752.866 529.923,0 0,-55.786 -529.923,0 0,55.786 z"
         id="path50" /></clipPath><clipPath
       clipPathUnits="userSpaceOnUse"
       id="clipPath52"><path
         d="m 658.373,722.954 c 0.113,14.795 -118.382,27.686 -264.653,28.799 -146.265,1.113 -264.933,-9.971 -265.048,-24.766 -0.11,-14.785 118.374,-27.68 264.641,-28.794 146.265,-1.113 264.947,9.976 265.06,24.761"
         id="path54" /></clipPath><clipPath
       clipPathUnits="userSpaceOnUse"
       id="clipPath56"><path
         d="m -24174,24974 32766,0 0,-32766 -32766,0 0,32766 z"
         id="path58" /></clipPath><clipPath
       clipPathUnits="userSpaceOnUse"
       id="clipPath60"><path
         d="m -24174,24974 32766,0 0,-32766 -32766,0 0,32766 z"
         id="path62" /></clipPath><mask
       maskUnits="userSpaceOnUse"
       x="0"
       y="0"
       width="1"
       height="1"
       id="mask64"><g
         id="g66"><g
           clip-path="url(#clipPath56)"
           id="g68"><g
             id="g70"><g
               id="g72" /><g
               id="g74"><g
                 clip-path="url(#clipPath60)"
                 id="g76" /></g></g></g></g></mask><radialGradient
       fx="0"
       fy="0"
       cx="0"
       cy="0"
       r="1"
       gradientUnits="userSpaceOnUse"
       gradientTransform="matrix(264.94162,-2.02297,-0.202297,-26.770634,393.52246,724.97266)"
       spreadMethod="pad"
       id="radialGradient78"><stop
         style="stop-opacity:1;stop-color:#ffffff"
         offset="0"
         id="stop80" /><stop
         style="stop-opacity:1;stop-color:#231f20"
         offset="1"
         id="stop82" /></radialGradient><mask
       maskUnits="userSpaceOnUse"
       x="0"
       y="0"
       width="1"
       height="1"
       id="mask84"><g
         id="g86"><g
           clip-path="url(#clipPath44)"
           opacity="0.899994"
           id="g88"><g
             id="g90"><g
               id="g92" /><g
               id="g94"><g
                 clip-path="url(#clipPath48)"
                 id="g96"><g
                   id="g98"><g
                     clip-path="url(#clipPath52)"
                     id="g100"><g
                       id="g102"><g
                         id="g104" /><g
                         mask="url(#mask64)"
                         id="g106"><g
                           id="g108"><path
                             d="m 658.373,722.954 c 0.113,14.795 -118.382,27.686 -264.653,28.799 -146.265,1.113 -264.933,-9.971 -265.048,-24.766 -0.11,-14.785 118.374,-27.68 264.641,-28.794 146.265,-1.113 264.947,9.976 265.06,24.761"
                             style="fill:url(#radialGradient78);stroke:none"
                             id="path110" /></g></g></g></g></g></g></g></g></g></g></mask><clipPath
       clipPathUnits="userSpaceOnUse"
       id="clipPath116"><path
         d="m 128.672,751.83 529.701,0 0,-53.714 -529.701,0 0,53.714 z"
         id="path118" /></clipPath><radialGradient
       fx="0"
       fy="0"
       cx="0"
       cy="0"
       r="1"
       gradientUnits="userSpaceOnUse"
       gradientTransform="matrix(264.94162,-2.02297,-0.202297,-26.770634,393.52246,724.97266)"
       spreadMethod="pad"
       id="radialGradient124"><stop
         style="stop-opacity:1;stop-color:#666666"
         offset="0"
         id="stop126" /><stop
         style="stop-opacity:1;stop-color:#f2f2f2"
         offset="1"
         id="stop128" /></radialGradient><linearGradient
       x1="0"
       y1="0"
       x2="1"
       y2="0"
       gradientUnits="userSpaceOnUse"
       gradientTransform="matrix(-523.34747,-15.026128,-15.026128,523.34747,662.22461,399.26172)"
       spreadMethod="pad"
       id="linearGradient156"><stop
         style="stop-opacity:1;stop-color:#939598"
         offset="0"
         id="stop158" /><stop
         style="stop-opacity:1;stop-color:#f1f2f2"
         offset="0.917923"
         id="stop160" /><stop
         style="stop-opacity:1;stop-color:#a7a9ac"
         offset="1"
         id="stop162" /></linearGradient><linearGradient
       x1="0"
       y1="0"
       x2="1"
       y2="0"
       gradientUnits="userSpaceOnUse"
       gradientTransform="matrix(-529.09326,-4.63e-5,-4.63e-5,529.09326,662.24121,387.85645)"
       spreadMethod="pad"
       id="linearGradient178"><stop
         style="stop-opacity:1;stop-color:#bcbec0"
         offset="0"
         id="stop180" /><stop
         style="stop-opacity:1;stop-color:#f1f2f2"
         offset="0.917923"
         id="stop182" /><stop
         style="stop-opacity:1;stop-color:#a7a9ac"
         offset="1"
         id="stop184" /></linearGradient><linearGradient
       x1="0"
       y1="0"
       x2="1"
       y2="0"
       gradientUnits="userSpaceOnUse"
       gradientTransform="matrix(-542.742,22.815655,22.815655,542.742,661.43945,368.79395)"
       spreadMethod="pad"
       id="linearGradient200"><stop
         style="stop-opacity:1;stop-color:#d1d3d4"
         offset="0"
         id="stop202" /><stop
         style="stop-opacity:1;stop-color:#f1f2f2"
         offset="0.917923"
         id="stop204" /><stop
         style="stop-opacity:1;stop-color:#a7a9ac"
         offset="1"
         id="stop206" /></linearGradient><clipPath
       clipPathUnits="userSpaceOnUse"
       id="clipPath214"><path
         d="M 0,800 800,800 800,0 0,0 0,800 z"
         id="path216" /></clipPath><clipPath
       clipPathUnits="userSpaceOnUse"
       id="clipPath222"><path
         d="m 136.672,69.8281 529.701,0 0,-53.709 -529.701,0 0,53.709 z"
         id="path224" /></clipPath><clipPath
       clipPathUnits="userSpaceOnUse"
       id="clipPath226"><path
         d="m 136.563,70.8643 529.923,0 0,-55.7813 -529.923,0 0,55.7813 z"
         id="path228" /></clipPath><clipPath
       clipPathUnits="userSpaceOnUse"
       id="clipPath230"><path
         d="M 666.373,40.957 C 666.486,55.752 547.991,68.638 401.72,69.751 255.455,70.864 136.787,59.78 136.672,44.99 136.562,30.2 255.046,17.305 401.313,16.196 547.578,15.083 666.26,26.172 666.373,40.957"
         id="path232" /></clipPath><clipPath
       clipPathUnits="userSpaceOnUse"
       id="clipPath234"><path
         d="m -24174,24974 32766,0 0,-32766 -32766,0 0,32766 z"
         id="path236" /></clipPath><clipPath
       clipPathUnits="userSpaceOnUse"
       id="clipPath238"><path
         d="m -24174,24974 32766,0 0,-32766 -32766,0 0,32766 z"
         id="path240" /></clipPath><mask
       maskUnits="userSpaceOnUse"
       x="0"
       y="0"
       width="1"
       height="1"
       id="mask242"><g
         id="g244"><g
           clip-path="url(#clipPath234)"
           id="g246"><g
             id="g248"><g
               id="g250" /><g
               id="g252"><g
                 clip-path="url(#clipPath238)"
                 id="g254" /></g></g></g></g></mask><radialGradient
       fx="0"
       fy="0"
       cx="0"
       cy="0"
       r="1"
       gradientUnits="userSpaceOnUse"
       gradientTransform="matrix(264.92892,-2.0228732,-0.2022873,-26.769352,401.52344,42.973633)"
       spreadMethod="pad"
       id="radialGradient256"><stop
         style="stop-opacity:1;stop-color:#ffffff"
         offset="0"
         id="stop258" /><stop
         style="stop-opacity:1;stop-color:#231f20"
         offset="1"
         id="stop260" /></radialGradient><mask
       maskUnits="userSpaceOnUse"
       x="0"
       y="0"
       width="1"
       height="1"
       id="mask262"><g
         id="g264"><g
           clip-path="url(#clipPath222)"
           opacity="0.399994"
           id="g266"><g
             id="g268"><g
               id="g270" /><g
               id="g272"><g
                 clip-path="url(#clipPath226)"
                 id="g274"><g
                   id="g276"><g
                     clip-path="url(#clipPath230)"
                     id="g278"><g
                       id="g280"><g
                         id="g282" /><g
                         mask="url(#mask242)"
                         id="g284"><g
                           id="g286"><path
                             d="M 666.373,40.957 C 666.486,55.752 547.991,68.638 401.72,69.751 255.455,70.864 136.787,59.78 136.672,44.99 136.562,30.2 255.046,17.305 401.313,16.196 547.578,15.083 666.26,26.172 666.373,40.957"
                             style="fill:url(#radialGradient256);stroke:none"
                             id="path288" /></g></g></g></g></g></g></g></g></g></g></mask><clipPath
       clipPathUnits="userSpaceOnUse"
       id="clipPath294"><path
         d="m 136.672,69.8281 529.701,0 0,-53.709 -529.701,0 0,53.709 z"
         id="path296" /></clipPath><radialGradient
       fx="0"
       fy="0"
       cx="0"
       cy="0"
       r="1"
       gradientUnits="userSpaceOnUse"
       gradientTransform="matrix(264.92892,-2.0228732,-0.2022873,-26.769352,401.52344,42.973633)"
       spreadMethod="pad"
       id="radialGradient302"><stop
         style="stop-opacity:1;stop-color:#666666"
         offset="0"
         id="stop304" /><stop
         style="stop-opacity:1;stop-color:#f2f2f2"
         offset="1"
         id="stop306" /></radialGradient><clipPath
       clipPathUnits="userSpaceOnUse"
       id="clipPath326"><path
         d="m 115.025,735.825 53.814,0 0,-684.6287 -53.814,0 0,684.6287 z"
         id="path328" /></clipPath><clipPath
       clipPathUnits="userSpaceOnUse"
       id="clipPath330"><path
         d="m 113.715,735.937 56.435,0 0,-684.8481 -56.435,0 0,684.8481 z"
         id="path332" /></clipPath><clipPath
       clipPathUnits="userSpaceOnUse"
       id="clipPath334"><path
         d="m 144.54,735.825 c -14.794,0.112 -27.948,-153.066 -29.387,-342.119 -1.438,-189.043 9.383,-342.393 24.174,-342.51 14.789,-0.107 27.947,153.057 29.384,342.105 1.439,189.043 -9.386,342.407 -24.171,342.524"
         id="path336" /></clipPath><clipPath
       clipPathUnits="userSpaceOnUse"
       id="clipPath338"><path
         d="m -24174,24974 32766,0 0,-32766 -32766,0 0,32766 z"
         id="path340" /></clipPath><clipPath
       clipPathUnits="userSpaceOnUse"
       id="clipPath342"><path
         d="m -24174,24974 32766,0 0,-32766 -32766,0 0,32766 z"
         id="path344" /></clipPath><mask
       maskUnits="userSpaceOnUse"
       x="0"
       y="0"
       width="1"
       height="1"
       id="mask346"><g
         id="g348"><g
           clip-path="url(#clipPath338)"
           id="g350"><g
             id="g352"><g
               id="g354" /><g
               id="g356"><g
                 clip-path="url(#clipPath342)"
                 id="g358" /></g></g></g></g></mask><radialGradient
       fx="0"
       fy="0"
       cx="0"
       cy="0"
       r="1"
       gradientUnits="userSpaceOnUse"
       gradientTransform="matrix(2.5961237,342.41861,26.770418,-0.2022953,141.93262,393.51074)"
       spreadMethod="pad"
       id="radialGradient360"><stop
         style="stop-opacity:1;stop-color:#ffffff"
         offset="0"
         id="stop362" /><stop
         style="stop-opacity:1;stop-color:#231f20"
         offset="1"
         id="stop364" /></radialGradient><mask
       maskUnits="userSpaceOnUse"
       x="0"
       y="0"
       width="1"
       height="1"
       id="mask366"><g
         id="g368"><g
           clip-path="url(#clipPath326)"
           opacity="0.399994"
           id="g370"><g
             id="g372"><g
               id="g374" /><g
               id="g376"><g
                 clip-path="url(#clipPath330)"
                 id="g378"><g
                   id="g380"><g
                     clip-path="url(#clipPath334)"
                     id="g382"><g
                       id="g384"><g
                         id="g386" /><g
                         mask="url(#mask346)"
                         id="g388"><g
                           id="g390"><path
                             d="m 144.54,735.825 c -14.794,0.112 -27.948,-153.066 -29.387,-342.119 -1.438,-189.043 9.383,-342.393 24.174,-342.51 14.789,-0.107 27.947,153.057 29.384,342.105 1.439,189.043 -9.386,342.407 -24.171,342.524"
                             style="fill:url(#radialGradient360);stroke:none"
                             id="path392" /></g></g></g></g></g></g></g></g></g></g></mask><clipPath
       clipPathUnits="userSpaceOnUse"
       id="clipPath398"><path
         d="m 115.025,735.825 53.814,0 0,-684.6287 -53.814,0 0,684.6287 z"
         id="path400" /></clipPath><radialGradient
       fx="0"
       fy="0"
       cx="0"
       cy="0"
       r="1"
       gradientUnits="userSpaceOnUse"
       gradientTransform="matrix(2.5961237,342.41861,26.770418,-0.2022953,141.93262,393.51074)"
       spreadMethod="pad"
       id="radialGradient406"><stop
         style="stop-opacity:1;stop-color:#666666"
         offset="0"
         id="stop408" /><stop
         style="stop-opacity:1;stop-color:#f2f2f2"
         offset="1"
         id="stop410" /></radialGradient><clipPath
       clipPathUnits="userSpaceOnUse"
       id="clipPath430"><path
         d="m 619.025,735.825 53.815,0 0,-684.6287 -53.815,0 0,684.6287 z"
         id="path432" /></clipPath><clipPath
       clipPathUnits="userSpaceOnUse"
       id="clipPath434"><path
         d="m 617.715,735.937 56.435,0 0,-684.8481 -56.435,0 0,684.8481 z"
         id="path436" /></clipPath><clipPath
       clipPathUnits="userSpaceOnUse"
       id="clipPath438"><path
         d="m 648.54,735.825 c -14.794,0.112 -27.948,-153.066 -29.387,-342.119 -1.438,-189.043 9.382,-342.393 24.173,-342.51 14.789,-0.107 27.947,153.057 29.385,342.105 1.439,189.043 -9.386,342.407 -24.171,342.524"
         id="path440" /></clipPath><clipPath
       clipPathUnits="userSpaceOnUse"
       id="clipPath442"><path
         d="m -24174,24974 32766,0 0,-32766 -32766,0 0,32766 z"
         id="path444" /></clipPath><clipPath
       clipPathUnits="userSpaceOnUse"
       id="clipPath446"><path
         d="m -24174,24974 32766,0 0,-32766 -32766,0 0,32766 z"
         id="path448" /></clipPath><mask
       maskUnits="userSpaceOnUse"
       x="0"
       y="0"
       width="1"
       height="1"
       id="mask450"><g
         id="g452"><g
           clip-path="url(#clipPath442)"
           id="g454"><g
             id="g456"><g
               id="g458" /><g
               id="g460"><g
                 clip-path="url(#clipPath446)"
                 id="g462" /></g></g></g></g></mask><radialGradient
       fx="0"
       fy="0"
       cx="0"
       cy="0"
       r="1"
       gradientUnits="userSpaceOnUse"
       gradientTransform="matrix(2.596139,342.42062,26.770575,-0.2022965,645.93262,393.51074)"
       spreadMethod="pad"
       id="radialGradient464"><stop
         style="stop-opacity:1;stop-color:#ffffff"
         offset="0"
         id="stop466" /><stop
         style="stop-opacity:1;stop-color:#231f20"
         offset="1"
         id="stop468" /></radialGradient><mask
       maskUnits="userSpaceOnUse"
       x="0"
       y="0"
       width="1"
       height="1"
       id="mask470"><g
         id="g472"><g
           clip-path="url(#clipPath430)"
           opacity="0.399994"
           id="g474"><g
             id="g476"><g
               id="g478" /><g
               id="g480"><g
                 clip-path="url(#clipPath434)"
                 id="g482"><g
                   id="g484"><g
                     clip-path="url(#clipPath438)"
                     id="g486"><g
                       id="g488"><g
                         id="g490" /><g
                         mask="url(#mask450)"
                         id="g492"><g
                           id="g494"><path
                             d="m 648.54,735.825 c -14.794,0.112 -27.948,-153.066 -29.387,-342.119 -1.438,-189.043 9.382,-342.393 24.173,-342.51 14.789,-0.107 27.947,153.057 29.385,342.105 1.439,189.043 -9.386,342.407 -24.171,342.524"
                             style="fill:url(#radialGradient464);stroke:none"
                             id="path496" /></g></g></g></g></g></g></g></g></g></g></mask><clipPath
       clipPathUnits="userSpaceOnUse"
       id="clipPath502"><path
         d="m 619.025,735.825 53.815,0 0,-684.6287 -53.815,0 0,684.6287 z"
         id="path504" /></clipPath><radialGradient
       fx="0"
       fy="0"
       cx="0"
       cy="0"
       r="1"
       gradientUnits="userSpaceOnUse"
       gradientTransform="matrix(2.596139,342.42062,26.770575,-0.2022965,645.93262,393.51074)"
       spreadMethod="pad"
       id="radialGradient510"><stop
         style="stop-opacity:1;stop-color:#666666"
         offset="0"
         id="stop512" /><stop
         style="stop-opacity:1;stop-color:#f2f2f2"
         offset="1"
         id="stop514" /></radialGradient><linearGradient
       x1="0"
       y1="0"
       x2="1"
       y2="0"
       gradientUnits="userSpaceOnUse"
       gradientTransform="matrix(-529.09326,-4.63e-5,-4.63e-5,529.09326,662.24121,387.85645)"
       spreadMethod="pad"
       id="linearGradient542"><stop
         style="stop-opacity:1;stop-color:#e6e7e8"
         offset="0"
         id="stop544" /><stop
         style="stop-opacity:1;stop-color:#f1f2f2"
         offset="0.917923"
         id="stop546" /><stop
         style="stop-opacity:1;stop-color:#d1d3d4"
         offset="1"
         id="stop548" /></linearGradient><clipPath
       clipPathUnits="userSpaceOnUse"
       id="clipPath574"><path
         d="M 0,800 800,800 800,0 0,0 0,800 z"
         id="path576" /></clipPath><clipPath
       clipPathUnits="userSpaceOnUse"
       id="clipPath582"><path
         d="m 182,588.999 174,0 0,-520 -174,0 0,520 z"
         id="path584" /></clipPath><linearGradient
       x1="0"
       y1="0"
       x2="1"
       y2="0"
       gradientUnits="userSpaceOnUse"
       gradientTransform="matrix(72.442032,70.632767,70.632767,-72.442032,500.89258,598.33398)"
       spreadMethod="pad"
       id="linearGradient730"><stop
         style="stop-opacity:1;stop-color:#ffffff"
         offset="0"
         id="stop732" /><stop
         style="stop-opacity:1;stop-color:#f1f2f2"
         offset="0.751076"
         id="stop734" /><stop
         style="stop-opacity:1;stop-color:#a7a9ac"
         offset="1"
         id="stop736" /></linearGradient><clipPath
       clipPathUnits="userSpaceOnUse"
       id="clipPath744"><path
         d="M 0,800 800,800 800,0 0,0 0,800 z"
         id="path746" /></clipPath><clipPath
       clipPathUnits="userSpaceOnUse"
       id="clipPath840"><path
         d="m 0,0 243.805,0 0,393.819 L 0,393.819 0,0 z"
         id="path842" /></clipPath><clipPath
       clipPathUnits="userSpaceOnUse"
       id="clipPath876"><path
         d="M 556.195,0 800,0 l 0,393.819 -243.805,0 0,-393.819 z"
         id="path878" /></clipPath><clipPath
       clipPathUnits="userSpaceOnUse"
       id="clipPath912"><path
         d="M 0,800 800,800 800,0 0,0 0,800 z"
         id="path914" /></clipPath><clipPath
       clipPathUnits="userSpaceOnUse"
       id="clipPath582-4"><path
         inkscape:connector-curvature="0"
         d="m 182,588.999 174,0 0,-520 -174,0 0,520 z"
         id="path584-1" /></clipPath><clipPath
       clipPathUnits="userSpaceOnUse"
       id="clipPath582-4-4"><path
         inkscape:connector-curvature="0"
         d="m 182,588.999 174,0 0,-520 -174,0 0,520 z"
         id="path584-1-3" /></clipPath><linearGradient
       id="linearGradient3890-7"><stop
         id="stop3892-1"
         offset="0"
         style="stop-color:#ffffff;stop-opacity:1;" /><stop
         id="stop3894-4"
         offset="1"
         style="stop-color:#e5e5e5;stop-opacity:1;" /></linearGradient><linearGradient
       id="linearGradient3387"><stop
         id="stop3389"
         offset="0"
         style="stop-color:#ffffff;stop-opacity:1;" /><stop
         id="stop3391"
         offset="1"
         style="stop-color:#e5e5e5;stop-opacity:1;" /></linearGradient><linearGradient
       inkscape:collect="always"
       xlink:href="#linearGradient3890-7"
       id="linearGradient3364"
       gradientUnits="userSpaceOnUse"
       x1="298.84506"
       y1="578.27429"
       x2="346.15494"
       y2="621.65894" /><linearGradient
       id="linearGradient3394"><stop
         id="stop3396"
         offset="0"
         style="stop-color:#ffffff;stop-opacity:1;" /><stop
         id="stop3398"
         offset="1"
         style="stop-color:#e5e5e5;stop-opacity:1;" /></linearGradient><filter
       inkscape:collect="always"
       id="filter4559"
       x="-0.13580204"
       width="1.2716041"
       y="-0.081835247"
       height="1.1636705"><feGaussianBlur
         inkscape:collect="always"
         stdDeviation="19.496952"
         id="feGaussianBlur4561" /></filter><linearGradient
       inkscape:collect="always"
       xlink:href="#linearGradient4440"
       id="linearGradient4446"
       x1="150.46094"
       y1="630.5866"
       x2="298.35156"
       y2="630.5866"
       gradientUnits="userSpaceOnUse" /><linearGradient
       inkscape:collect="always"
       xlink:href="#linearGradient4440"
       id="linearGradient4450"
       gradientUnits="userSpaceOnUse"
       x1="150.46094"
       y1="630.5866"
       x2="298.35156"
       y2="630.5866" /><linearGradient
       inkscape:collect="always"
       xlink:href="#linearGradient4440"
       id="linearGradient4452"
       gradientUnits="userSpaceOnUse"
       x1="150.46094"
       y1="630.5866"
       x2="298.35156"
       y2="630.5866" /></defs><sodipodi:namedview
     pagecolor="#ffffff"
     bordercolor="#666666"
     borderopacity="1"
     objecttolerance="10"
     gridtolerance="10"
     guidetolerance="10"
     inkscape:pageopacity="0"
     inkscape:pageshadow="2"
     inkscape:window-width="1858"
     inkscape:window-height="1058"
     id="namedview4"
     showgrid="false"
     inkscape:zoom="0.6675088"
     inkscape:cx="466.38429"
     inkscape:cy="520.0097"
     inkscape:window-x="1974"
     inkscape:window-y="-8"
     inkscape:window-maximized="1"
     inkscape:current-layer="layer4" /><g
     id="g10"
     inkscape:groupmode="layer"
     inkscape:label="news paper2"
     transform="matrix(1.25,0,0,-1.25,0,1000)"
     style="display:inline;opacity:1"
     sodipodi:insensitive="true"><g
       id="g580" /><g
       id="g3284"><g
         transform="matrix(1.1185012,0,0,1.10367,-37.359419,-25.399882)"
         id="g32"><g
           clip-path="url(#clipPath36)"
           id="g34"><g
             id="g40"><g
               id="g42" /><g
               mask="url(#mask84)"
               id="g112"><g
                 id="g114" /><g
                 id="g130"><g
                   style="opacity:0.89999402"
                   id="g132"
                   clip-path="url(#clipPath116)"><g
                     id="g134"><g
                       id="g136"><g
                         id="g138"><g
                           id="g140"><path
                             inkscape:connector-curvature="0"
                             id="path142"
                             style="fill:url(#radialGradient124);stroke:none"
                             d="m 658.373,722.954 c 0.113,14.795 -118.382,27.686 -264.653,28.799 -146.265,1.113 -264.933,-9.971 -265.048,-24.766 -0.11,-14.785 118.374,-27.68 264.641,-28.794 146.265,-1.113 264.947,9.976 265.06,24.761" /></g></g></g></g></g></g></g></g></g></g><g
         transform="matrix(1.1185012,0,0,1.10367,-37.359419,-25.399882)"
         id="g144"><g
           id="g146"><g
             id="g152"><g
               id="g154"><path
                 inkscape:connector-curvature="0"
                 id="path164"
                 style="fill:url(#linearGradient156);stroke:none"
                 d="M 134.942,734.18 148.388,343.882 150.695,34.517 666.721,51.279 645.465,309.995 641.773,735.527 134.942,734.18 Z" /></g></g></g></g><g
         transform="matrix(1.1185012,0,0,1.10367,-37.359419,-25.399882)"
         id="g166"><g
           id="g168"><g
             id="g174"><g
               id="g176"><path
                 inkscape:connector-curvature="0"
                 id="path186"
                 style="fill:url(#linearGradient178);stroke:none"
                 d="m 134.942,734.18 12.251,-383.34 -6.815,-309.307 516.311,2.656 -13.623,258.863 8.857,425.454 -516.981,5.674 z" /></g></g></g></g><g
         transform="matrix(1.1185012,0,0,1.10367,-37.359419,-25.399882)"
         id="g188"><g
           id="g190"><g
             id="g196"><g
               id="g198"><path
                 inkscape:connector-curvature="0"
                 id="path208"
                 style="fill:url(#linearGradient200);stroke:none"
                 d="m 134.942,734.18 10.876,-373.13 -5.44,-319.517 501.296,-7.192 -2.477,258.686 27.168,424.722 -531.423,16.431 z" /></g></g></g></g><g
         transform="matrix(1.1185012,0,0,1.10367,-37.359419,-25.399882)"
         id="g210"><g
           clip-path="url(#clipPath214)"
           id="g212"><g
             id="g218"><g
               id="g220" /><g
               mask="url(#mask262)"
               id="g290"><g
                 id="g292" /><g
                 id="g308"><g
                   style="opacity:0.39999402"
                   id="g310"
                   clip-path="url(#clipPath294)"><g
                     id="g312"><g
                       id="g314"><g
                         id="g316"><g
                           id="g318"><path
                             inkscape:connector-curvature="0"
                             id="path320"
                             style="fill:url(#radialGradient302);stroke:none"
                             d="M 666.373,40.957 C 666.486,55.752 547.991,68.638 401.72,69.751 255.455,70.864 136.787,59.78 136.672,44.99 136.562,30.2 255.046,17.305 401.313,16.196 547.578,15.083 666.26,26.172 666.373,40.957" /></g></g></g></g></g></g></g></g><g
             id="g322"><g
               id="g324" /><g
               mask="url(#mask366)"
               id="g394"><g
                 id="g396" /><g
                 id="g412"><g
                   style="opacity:0.39999402"
                   id="g414"
                   clip-path="url(#clipPath398)"><g
                     id="g416"><g
                       id="g418"><g
                         id="g420"><g
                           id="g422"><path
                             inkscape:connector-curvature="0"
                             id="path424"
                             style="fill:url(#radialGradient406);stroke:none"
                             d="m 144.54,735.825 c -14.794,0.112 -27.948,-153.066 -29.387,-342.119 -1.438,-189.043 9.383,-342.393 24.174,-342.51 14.789,-0.107 27.947,153.057 29.384,342.105 1.439,189.043 -9.386,342.407 -24.171,342.524" /></g></g></g></g></g></g></g></g><g
             id="g426"><g
               id="g428" /><g
               mask="url(#mask470)"
               id="g498"><g
                 id="g500" /><g
                 id="g516"><g
                   style="opacity:0.39999402"
                   id="g518"
                   clip-path="url(#clipPath502)"><g
                     id="g520"><g
                       id="g522"><g
                         id="g524"><g
                           id="g526"><path
                             inkscape:connector-curvature="0"
                             id="path528"
                             style="fill:url(#radialGradient510);stroke:none"
                             d="m 648.54,735.825 c -14.794,0.112 -27.948,-153.066 -29.387,-342.119 -1.438,-189.043 9.382,-342.393 24.173,-342.51 14.789,-0.107 27.947,153.057 29.385,342.105 1.439,189.043 -9.386,342.407 -24.171,342.524" /></g></g></g></g></g></g></g></g></g></g><g
         transform="matrix(1.1185012,0,0,1.10367,-37.359419,-25.399882)"
         id="g530"><g
           id="g532"><g
             id="g538"><g
               id="g540"><path
                 inkscape:connector-curvature="0"
                 id="path550"
                 style="fill:url(#linearGradient542);stroke:none"
                 d="M 648.926,584.473 643.066,303.052 656.689,44.189 140.378,41.533 147.193,350.84 134.942,734.18 474.194,730.498 648.926,584.473 Z" /></g></g></g></g><path
         inkscape:connector-curvature="0"
         id="path566"
         style="fill:#4a4a4c;fill-opacity:1;fill-rule:nonzero;stroke:none"
         d="m 610.9541,547.56499 -446.25963,0 0,10.32365 446.25963,0 0,-10.32365 z" /><path
         d="m 360.82703,378.79008 -194.61922,0 0,129.71983 194.61922,0 0,-129.71983 z"
         style="opacity:0.80000299;fill:#acb0b3;fill-opacity:1;fill-rule:nonzero;stroke:none"
         id="path590"
         inkscape:connector-curvature="0" /><path
         inkscape:connector-curvature="0"
         id="path748"
         style="fill:#58595b;fill-opacity:1;fill-rule:nonzero;stroke:none"
         d="m 684.77071,38.535724 -518.39848,0 0,4.963204 518.39848,0 0,-4.963204 z" /><path
         inkscape:export-ydpi="137.33"
         inkscape:export-xdpi="137.33"
         inkscape:connector-curvature="0"
         id="path4099-7"
         d="m 463.01012,210.25824 -0.96282,-28.74351 c 56.06449,-0.9752 99.53659,-52.4053 97.43082,-115.266951 L 585.1138,65.802017 C 587.73996,144.19629 532.92768,209.04217 463.01012,210.25824 Z"
         style="color:#000000;font-style:normal;font-variant:normal;font-weight:normal;font-stretch:normal;font-size:medium;line-height:normal;font-family:Sans;-inkscape-font-specification:Sans;text-indent:0;text-align:start;text-decoration:none;text-decoration-line:none;letter-spacing:normal;word-spacing:normal;text-transform:none;direction:ltr;block-progression:tb;writing-mode:lr-tb;baseline-shift:baseline;text-anchor:start;display:inline;overflow:visible;visibility:visible;fill:#ffa245;fill-opacity:1;stroke:none;stroke-width:0.93919998;marker:none;enable-background:accumulate" /><path
         inkscape:export-ydpi="137.33"
         inkscape:export-xdpi="137.33"
         inkscape:connector-curvature="0"
         id="path4099-0-3"
         d="m 460.30909,163.10465 -0.95497,-28.50674 c 34.87469,-0.60622 61.84278,-31.95839 60.554,-70.427689 l 25.84287,-0.449488 c 1.80476,53.875357 -36.60063,98.534407 -85.4419,99.383917 z"
         style="color:#000000;font-style:normal;font-variant:normal;font-weight:normal;font-stretch:normal;font-size:medium;line-height:normal;font-family:Sans;-inkscape-font-specification:Sans;text-indent:0;text-align:start;text-decoration:none;text-decoration-line:none;letter-spacing:normal;word-spacing:normal;text-transform:none;direction:ltr;block-progression:tb;writing-mode:lr-tb;baseline-shift:baseline;text-anchor:start;display:inline;overflow:visible;visibility:visible;fill:#ffa245;fill-opacity:1;stroke:none;stroke-width:0.93895072;marker:none;enable-background:accumulate" /><ellipse
         inkscape:export-ydpi="137.33"
         inkscape:export-xdpi="137.33"
         transform="matrix(0.97549442,-0.01696589,-0.03724988,-1.1119867,184.86299,757.51718)"
         id="path4901-1-7-9"
         style="fill:#ffa245;fill-opacity:1;fill-rule:evenodd;stroke:none"
         cx="322.5"
         cy="599.50507"
         rx="21.785715"
         ry="21.428572" /><path
         transform="matrix(0.72368847,-0.03436653,0.03659954,0.62391644,-498.26794,101.6508)"
         sodipodi:nodetypes="csssssscsscssc"
         inkscape:connector-curvature="0"
         id="path4448-7"
         d="m 1373.089,258.217 c -146.0952,73.29926 -177.3503,157.76058 -135.8476,268.4823 42.301,112.85181 192.4768,173.19799 106.977,278.24577 -15.1208,18.57784 -44.166,36.62102 14.9817,15.66665 67.2014,-23.80755 154.0238,-146.17439 185.9782,-222.23879 71.0154,-169.04621 -71.582,-335.62328 -81.824,-330.6778 -10.2418,4.94547 13.198,7.50984 25.5965,49.74724 13.2338,45.0832 -7.2987,29.88192 -7.2987,29.88192 0,0 -18.9698,-29.23267 -34.1074,-29.98047 -17.0475,-0.84217 -36.6784,-7.78255 -23.0426,60.38497 13.6356,68.16755 -18.0762,154.34306 -18.0762,154.34306 0,0 -30.1456,-37.09213 -53.8409,-94.55536 -41.7839,-101.32972 -29.3424,-124.32264 23.9666,-162.2289 9.5162,-6.76654 -3.4626,-17.07059 -3.4626,-17.07059 z"
         style="fill:#afafaf;fill-opacity:0.95686275;stroke:none;filter:url(#filter4559)" /><path
         sodipodi:nodetypes="csssssscsscssc"
         inkscape:connector-curvature="0"
         id="path4448"
         d="m 492.96929,225.64186 c -107.24273,51.17419 -114.07665,114.01027 -78.63726,182.16705 36.121,69.46804 97.4693,125.65152 77.56925,162.53572 -3.07698,5.70309 -40.87948,25.36565 11.87413,9.3262 50.5042,-15.3555 110.45768,-97.26301 131.64414,-146.19466 47.08506,-108.74619 -66.59374,-208.49018 -74.11949,-205.0241 -7.52528,3.46613 10.22258,4.26074 21.15618,30.38049 11.6701,27.87963 -4.36623,19.03957 -4.36623,19.03957 0,0 -15.3903,-17.71527 -26.81756,-17.65743 -12.86908,0.065 -27.91441,-3.61323 -15.06859,38.76411 12.84552,42.37739 -7.77602,97.65687 -7.77602,97.65687 0,0 -24.103,-22.26629 -44.11932,-57.56364 -35.29595,-62.24279 -26.79647,-77.13103 11.91365,-102.81966 6.91013,-4.58562 -3.25288,-10.61052 -3.25288,-10.61052 z"
         style="fill:#ffa245;fill-opacity:1;stroke:none" /><path
         d="m 362.90503,61.854523 -195.95972,0 0,260.670417 195.95972,0 0,-260.670417 z"
         style="opacity:0.80000299;fill:#d4d6d8;fill-opacity:1;fill-rule:nonzero;stroke:none"
         id="path590-0"
         inkscape:connector-curvature="0" /><path
         d="m 361.56455,339.62848 -194.61923,0 0,6.70566 194.61923,0 0,-6.70566 z"
         style="opacity:0.80000299;fill:#58585f;fill-opacity:1;fill-rule:nonzero;stroke:none"
         id="path590-7"
         inkscape:connector-curvature="0" /></g><g
       inkscape:groupmode="layer"
       id="layer1"
       inkscape:label="Name"
       style="display:inline"><flowRoot
         xml:space="preserve"
         id="flowRoot4432"
         style="font-style:normal;font-variant:normal;font-weight:normal;font-stretch:normal;font-size:180px;line-height:129.99999523%;font-family:Vani;-inkscape-font-specification:'Vani, Normal';text-align:start;letter-spacing:0px;word-spacing:0px;writing-mode:lr-tb;text-anchor:start;opacity:1;fill:url(#linearGradient4446);fill-opacity:1;fill-rule:nonzero;stroke:none;stroke-width:0;stroke-linecap:butt;stroke-linejoin:miter;stroke-miterlimit:4;stroke-dasharray:none;stroke-opacity:1"
         transform="matrix(0.8,0,0,-0.8,3.5954582,1188.7171)"><flowRegion
           id="flowRegion4434"
           style="fill:url(#linearGradient4452);fill-opacity:1"><rect
             id="rect4436"
             width="618.71838"
             height="214.22937"
             x="148.31265"
             y="600.00525"
             style="font-style:normal;font-variant:normal;font-weight:normal;font-stretch:normal;font-size:180px;line-height:129.99999523%;font-family:Vani;-inkscape-font-specification:'Vani, Normal';text-align:start;writing-mode:lr-tb;text-anchor:start;fill:url(#linearGradient4450);fill-opacity:1;fill-rule:nonzero;stroke:none;stroke-width:0;stroke-miterlimit:4;stroke-dasharray:none;stroke-opacity:1" /></flowRegion><flowPara
           id="flowPara4438"
           style="font-style:normal;font-variant:normal;font-weight:normal;font-stretch:normal;font-size:180px;line-height:129.99999523%;font-family:Vani;-inkscape-font-specification:'Vani, Normal';text-align:start;writing-mode:lr-tb;text-anchor:start;fill:#000000;fill-opacity:1;fill-rule:nonzero;stroke:none;stroke-width:0;stroke-miterlimit:4;stroke-dasharray:none;stroke-opacity:1">spaRSS</flowPara></flowRoot></g><g
       inkscape:groupmode="layer"
       id="layer3"
       inkscape:label="bookCorner"><path
         sodipodi:nodetypes="cccc"
         inkscape:connector-curvature="0"
         id="path738"
         style="display:inline;opacity:0.94599998;fill:#acb0b3;fill-opacity:1;stroke:none"
         d="m 610.14129,564.45481 c 37.6434,56.90445 65.34119,69.54142 84.39887,53.59149 -105.20055,96.6579 -90.12599,71.82015 -199.61612,163.65143 z" /></g><g
       transform="matrix(3.0985082,0,0,-4.4196598,-594.90859,1303.4167)"
       style="font-style:normal;font-weight:normal;font-size:40px;line-height:125%;font-family:Sans;-inkscape-font-specification:TSCu_Times;letter-spacing:0px;word-spacing:0px;fill:#000000;fill-opacity:1;stroke:none"
       id="flowRoot4411" /></g><g
     inkscape:groupmode="layer"
     id="layer4"
     inkscape:label="optional_tickerWidgetPreview"
     style="display:none;opacity:0.95"><circle
       style="opacity:0.94599998;fill:#ff3900;fill-opacity:1;fill-rule:nonzero;stroke:#000000;stroke-width:1.73209059;stroke-miterlimit:4;stroke-dasharray:none;stroke-opacity:1"
       id="path4752"
       cx="799.24042"
       cy="831.46289"
       r="162.17862"
       inkscape:export-filename="E:\Dev\Flym\mobile\src\main\res\drawable-xhdpi\ticker_widget_preview2.png"
       inkscape:export-xdpi="9"
       inkscape:export-ydpi="9" /><flowRoot
       xml:space="preserve"
       id="flowRoot4754"
       style="font-style:normal;font-variant:normal;font-weight:normal;font-stretch:normal;font-size:90px;line-height:125%;font-family:Arial;-inkscape-font-specification:'Arial, Normal';text-align:start;letter-spacing:0px;word-spacing:0px;writing-mode:lr-tb;text-anchor:start;fill:#ffffff;fill-opacity:1;stroke:none;stroke-width:1px;stroke-linecap:butt;stroke-linejoin:miter;stroke-opacity:1"
       transform="matrix(1.7320906,0,0,1.7320906,-643.92882,-745.36433)"
       inkscape:export-filename="E:\Dev\Flym\mobile\src\main\res\drawable-xhdpi\ticker_widget_preview2.png"
       inkscape:export-xdpi="9"
       inkscape:export-ydpi="9"><flowRegion
         id="flowRegion4756"><rect
           id="rect4758"
           width="71.909172"
           height="152.80699"
           x="810.4762"
           y="854.68359"
           style="font-style:normal;font-variant:normal;font-weight:normal;font-stretch:normal;font-size:90px;line-height:125%;font-family:Arial;-inkscape-font-specification:'Arial, Normal';text-align:start;writing-mode:lr-tb;text-anchor:start;fill:#ffffff;fill-opacity:1" /></flowRegion><flowPara
         id="flowPara4760"
         style="font-style:normal;font-variant:normal;font-weight:normal;font-stretch:normal;font-size:90px;line-height:125%;font-family:Arial;-inkscape-font-specification:'Arial, Normal';text-align:start;writing-mode:lr-tb;text-anchor:start">7</flowPara></flowRoot></g></svg>